<?xml version="1.0" encoding="UTF-8"?>
<svg xmlns="http://www.w3.org/2000/svg" viewBox="0 0 1200 630" width="1200" height="630">
  <defs>
    <linearGradient id="g80223" x1="92.4024048078213%" y1="23.504036788339754%" x2="7.5975951921787015%" y2="76.49596321166024%">
      <stop offset="0%" stop-color="#7C3AED"/>
      <stop offset="100%" stop-color="#6D28D9"/>
    </linearGradient>
  </defs>
  <rect width="1200" height="630" fill="url(#g80223)"/>
  <path d="M 1033.355149133131 481.95335065945983 L 882.324740907643 481.95335065945983 L 882.324740907643 433.00092708319426" fill="none" stroke="rgba(255,255,255,0.1416142267547548)" stroke-width="2"/><circle cx="1033.355149133131" cy="481.95335065945983" r="4" fill="rgba(255,255,255,0.15)"/><path d="M 964.5025366172194 396.3881349260919 L 1181.1259309318848 396.3881349260919 L 1181.1259309318848 326.4131074096076" fill="none" stroke="rgba(255,255,255,0.0840404804237187)" stroke-width="2"/><circle cx="964.5025366172194" cy="396.3881349260919" r="4" fill="rgba(255,255,255,0.15)"/><path d="M 927.093109274283 475.44403210049495 L 1074.9718928500079 475.44403210049495 L 1074.9718928500079 426.2642978481017" fill="none" stroke="rgba(255,255,255,0.12526287192478777)" stroke-width="2"/><circle cx="927.093109274283" cy="475.44403210049495" r="4" fill="rgba(255,255,255,0.15)"/><path d="M 787.7729878947139 544.3188345315866 L 654.9423117074184 544.3188345315866 L 654.9423117074184 597.5668365391903" fill="none" stroke="rgba(255,255,255,0.09219305947422982)" stroke-width="2"/><circle cx="787.7729878947139" cy="544.3188345315866" r="4" fill="rgba(255,255,255,0.15)"/><path d="M 791.0489164479077 328.04414622019976 L 652.8219230822287 328.04414622019976 L 652.8219230822287 215.32380394171923" fill="none" stroke="rgba(255,255,255,0.07174495603889228)" stroke-width="2"/><circle cx="791.0489164479077" cy="328.04414622019976" r="4" fill="rgba(255,255,255,0.15)"/><text x="560.4063839651644" y="167.56091166753322" font-family="monospace" font-size="120" fill="rgba(255,255,255,0.07)">&lt;/&gt;</text><text x="1093.30256158486" y="100.47963005723432" font-family="monospace" font-size="31.716909946873784" fill="rgba(255,255,255,0.10890978828072548)">0</text><text x="815.6769429892302" y="523.5790016874671" font-family="monospace" font-size="32.29141734354198" fill="rgba(255,255,255,0.11777938222512603)">0</text><text x="354.69298174604774" y="206.92111457465217" font-family="monospace" font-size="40.394479979760945" fill="rgba(255,255,255,0.10239582678303123)">0</text><text x="120.71214322000742" y="367.44458995293826" font-family="monospace" font-size="37.370660928077996" fill="rgba(255,255,255,0.11061959655955433)">0</text><text x="205.511984936893" y="523.8725900021382" font-family="monospace" font-size="31.44426916539669" fill="rgba(255,255,255,0.06579207701608539)">0</text><text x="434.34173373505473" y="186.5551818627864" font-family="monospace" font-size="32.92410987429321" fill="rgba(255,255,255,0.11710336506366731)">0</text><text x="536.7592321150005" y="248.92773616826162" font-family="monospace" font-size="44.09212602674961" fill="rgba(255,255,255,0.0585972841270268)">1</text><rect x="886.584611563012" y="358.55396152473986" width="16" height="16" rx="2" fill="rgba(255,255,255,0.1)"/><rect x="906.584611563012" y="358.55396152473986" width="16" height="16" rx="2" fill="rgba(255,255,255,0.1)"/><rect x="926.584611563012" y="358.55396152473986" width="16" height="16" rx="2" fill="rgba(255,255,255,0.1)"/><rect x="946.584611563012" y="358.55396152473986" width="16" height="16" rx="2" fill="rgba(255,255,255,0.04)"/><rect x="966.584611563012" y="358.55396152473986" width="16" height="16" rx="2" fill="rgba(255,255,255,0.04)"/><rect x="886.584611563012" y="378.55396152473986" width="16" height="16" rx="2" fill="rgba(255,255,255,0.1)"/><rect x="906.584611563012" y="378.55396152473986" width="16" height="16" rx="2" fill="rgba(255,255,255,0.1)"/><rect x="926.584611563012" y="378.55396152473986" width="16" height="16" rx="2" fill="rgba(255,255,255,0.1)"/><rect x="946.584611563012" y="378.55396152473986" width="16" height="16" rx="2" fill="rgba(255,255,255,0.04)"/><rect x="966.584611563012" y="378.55396152473986" width="16" height="16" rx="2" fill="rgba(255,255,255,0.1)"/><rect x="886.584611563012" y="398.55396152473986" width="16" height="16" rx="2" fill="rgba(255,255,255,0.1)"/><rect x="906.584611563012" y="398.55396152473986" width="16" height="16" rx="2" fill="rgba(255,255,255,0.04)"/><rect x="926.584611563012" y="398.55396152473986" width="16" height="16" rx="2" fill="rgba(255,255,255,0.1)"/><rect x="946.584611563012" y="398.55396152473986" width="16" height="16" rx="2" fill="rgba(255,255,255,0.1)"/><rect x="966.584611563012" y="398.55396152473986" width="16" height="16" rx="2" fill="rgba(255,255,255,0.04)"/>
  <circle cx="167.48286662623286" cy="433.5574971931055" r="2.770795210264623" fill="rgba(255,255,255,0.05142055726144463)"/><circle cx="142.15056532993913" cy="146.93143307464197" r="2.7919256575405598" fill="rgba(255,255,255,0.07265399447176606)"/><circle cx="855.3380817174911" cy="21.672874088399112" r="1.7290018773637712" fill="rgba(255,255,255,0.047139641055837275)"/><circle cx="536.9346348568797" cy="130.03502007806674" r="1.9637100156396627" fill="rgba(255,255,255,0.030142931670416144)"/><circle cx="941.7709847912192" cy="346.68466477654874" r="2.7774748313240707" fill="rgba(255,255,255,0.07060667097801343)"/><circle cx="27.488431613892317" cy="580.7288312539458" r="2.7792068626731634" fill="rgba(255,255,255,0.04408430656883865)"/><circle cx="493.58440674841404" cy="577.5578429969028" r="2.5827330220490694" fill="rgba(255,255,255,0.05108669818844647)"/><circle cx="40.98695274442434" cy="172.54510348895565" r="1.5162249696440995" fill="rgba(255,255,255,0.03748429828090593)"/><circle cx="214.36870526522398" cy="549.0623537404463" r="2.3593059442937374" fill="rgba(255,255,255,0.04665016500046477)"/><circle cx="788.1014037877321" cy="413.36963168811053" r="1.8934146384708583" fill="rgba(255,255,255,0.04894752106163651)"/><circle cx="519.6534960530698" cy="133.41057111276314" r="2.906343849375844" fill="rgba(255,255,255,0.035428133078385146)"/><circle cx="253.2416794449091" cy="230.85905364481732" r="2.7136119450442493" fill="rgba(255,255,255,0.0378783179516904)"/>
  <text x="600" y="335" font-family="system-ui, -apple-system, 'Segoe UI', sans-serif" font-size="68" font-weight="700" fill="rgba(0,0,0,0.15)" text-anchor="middle" letter-spacing="1">Comptia A Core 1</text>
  <text x="600" y="332" font-family="system-ui, -apple-system, 'Segoe UI', sans-serif" font-size="68" font-weight="700" fill="white" text-anchor="middle" letter-spacing="1">Comptia A Core 1</text>
  <g transform="translate(1140, 575)">
    <rect x="0" y="0" width="40" height="40" rx="8" fill="rgba(255,255,255,0.15)"/>
    <text x="20" y="29" font-family="sans-serif" font-weight="bold" font-size="24" fill="rgba(255,255,255,0.6)" text-anchor="middle">K</text>
  </g>
</svg>